HIERARCHY
ROOT Hips
{
 OFFSET 0.000000 0.000000 0.000000
 CHANNELS 6 Xposition Yposition Zposition Yrotation Xrotation Zrotation
 JOINT Chest
 {
  OFFSET 0.000000 9.585900 0.002600
  CHANNELS 3 Yrotation Xrotation Zrotation
  JOINT Chest2
  {
   OFFSET 0.000000 9.601200 -0.005300
   CHANNELS 3 Yrotation Xrotation Zrotation
   JOINT Chest3
   {
    OFFSET 0.000000 9.561800 0.000000
    CHANNELS 3 Yrotation Xrotation Zrotation
    JOINT Chest4
    {
     OFFSET 0.000000 9.552100 0.000000
     CHANNELS 3 Yrotation Xrotation Zrotation
     JOINT Neck
     {
      OFFSET 0.000000 14.453000 0.000000
      CHANNELS 3 Yrotation Xrotation Zrotation
      JOINT Head
      {
       OFFSET 0.000000 8.936500 -0.011300
       CHANNELS 3 Yrotation Xrotation Zrotation
       End Site
       {
        OFFSET 0.000000 17.073600 -0.006000
       }
      }
     }
     JOINT RightCollar
     {
      OFFSET -2.921100 9.558500 0.000000
      CHANNELS 3 Yrotation Xrotation Zrotation
      JOINT RightShoulder
      {
       OFFSET -13.519700 0.000000 0.000000
       CHANNELS 3 Yrotation Xrotation Zrotation
       JOINT RightElbow
       {
        OFFSET 0.000000 -29.696600 0.000000
        CHANNELS 3 Yrotation Xrotation Zrotation
        JOINT RightWrist
        {
         OFFSET 0.000000 -24.004700 0.000000
         CHANNELS 3 Yrotation Xrotation Zrotation
         End Site
         {
          OFFSET 0.000000 -17.728500 0.000000
         }
        }
       }
      }
     }
     JOINT LeftCollar
     {
      OFFSET 2.921100 9.558500 0.000000
      CHANNELS 3 Yrotation Xrotation Zrotation
      JOINT LeftShoulder
      {
       OFFSET 13.519700 0.000000 0.000000
       CHANNELS 3 Yrotation Xrotation Zrotation
       JOINT LeftElbow
       {
        OFFSET 0.000000 -29.696600 0.000000
        CHANNELS 3 Yrotation Xrotation Zrotation
        JOINT LeftWrist
        {
         OFFSET 0.000000 -24.004700 0.000000
         CHANNELS 3 Yrotation Xrotation Zrotation
         End Site
         {
          OFFSET 0.000000 -17.728500 0.000000
         }
        }
       }
      }
     }
    }
   }
  }
 }
 JOINT RightHip
 {
  OFFSET -7.771700 -0.012900 -0.001300
  CHANNELS 3 Yrotation Xrotation Zrotation
  JOINT RightKnee
  {
   OFFSET 0.000000 -40.869800 0.001200
   CHANNELS 3 Yrotation Xrotation Zrotation
   JOINT RightAnkle
   {
    OFFSET 0.000000 -39.717900 0.002100
    CHANNELS 3 Yrotation Xrotation Zrotation
    JOINT RightToe
    {
     OFFSET 0.000000 -4.965400 11.033500
     CHANNELS 3 Yrotation Xrotation Zrotation
     End Site
     {
      OFFSET 0.000000 -1.423100 5.872300
     }
    }
   }
  }
 }
 JOINT LeftHip
 {
  OFFSET 7.771700 -0.012900 -0.001300
  CHANNELS 3 Yrotation Xrotation Zrotation
  JOINT LeftKnee
  {
   OFFSET 0.000000 -40.869800 0.001200
   CHANNELS 3 Yrotation Xrotation Zrotation
   JOINT LeftAnkle
   {
    OFFSET 0.000000 -39.717900 0.002100
    CHANNELS 3 Yrotation Xrotation Zrotation
    JOINT LeftToe
    {
     OFFSET 0.000000 -4.965400 11.033500
     CHANNELS 3 Yrotation Xrotation Zrotation
     End Site
     {
      OFFSET 0.000000 -1.423100 5.872300
     }
    }
   }
  }
 }
}
MOTION
Frames: 6
Frame Time: 0.008333
-2.813477 50.183406 33.771321 174.051365 -33.596486 -7.086698 5.157988 21.154606 7.362657 0.533049 2.991120 0.707540 0.876530 4.829226 1.146826 3.892607 17.993363 4.810915 -2.753825 14.295397 -0.883867 -4.836620 -9.233501 -0.604944 3.848593 -1.222366 -6.534209 0.040573 -9.558727 -12.524310 -139.398767 -55.978589 148.968867 4.880382 -3.652699 40.684648 -11.147736 -0.564951 -1.669259 8.055081 -11.550662 4.674507 101.207304 -52.115703 -145.544268 3.460463 6.134012 -62.193532 3.183833 -47.869479 7.004115 -69.907591 78.961104 -58.413791 0.402867 -5.822268 -1.511727 -0.381998 1.403185 -0.164422 -14.348990 -51.025266 19.831019 -151.893784 88.041485 -159.512236 -1.933144 -7.050071 4.328434 -0.062330 -0.195951 -0.007620
-2.801488 50.179247 33.765641 174.055256 -33.658888 -7.107701 5.204285 21.282808 7.448882 0.534253 3.010340 0.706825 0.886239 4.879492 1.161955 3.914903 18.070088 4.845938 -2.738889 14.329766 -0.969811 -4.775019 -9.172669 -0.773163 3.857344 -1.196328 -6.484936 0.189736 -9.644763 -12.172176 -140.034802 -56.339293 149.238251 4.581006 -3.680129 39.117471 -11.195187 -0.497958 -1.669361 7.905147 -11.587172 4.649807 102.162672 -52.440959 -146.011125 4.020982 5.499504 -60.760828 3.192922 -47.809306 7.036513 -69.982637 78.942777 -58.468712 0.407909 -5.853981 -1.515614 -0.385513 1.427915 -0.164441 -14.337484 -50.969153 19.856607 -150.842754 88.003550 -158.468963 -1.912323 -7.061746 4.343640 -0.064955 -0.195225 -0.009306
-2.792209 50.174399 33.762147 174.058176 -33.709883 -7.108178 5.235037 21.387784 7.500511 0.527871 2.998900 0.691253 0.907278 4.969978 1.201266 3.931600 18.143302 4.878541 -2.720292 14.363870 -1.054946 -4.706901 -9.112351 -0.941236 3.867367 -1.172553 -6.423576 0.359893 -9.728639 -11.823308 -140.737128 -56.721184 149.541236 4.387517 -3.664158 37.567287 -11.234699 -0.431558 -1.671127 7.771082 -11.612492 4.609640 103.015911 -52.755641 -146.411374 4.551908 4.887995 -59.247101 3.197306 -47.761554 7.044157 -70.065691 78.930404 -58.543219 0.435837 -5.876763 -1.518798 -0.401586 1.443204 -0.171615 -14.310498 -50.925751 19.854000 -149.911927 87.972289 -157.547680 -1.895135 -7.070929 4.358251 -0.066080 -0.193310 -0.009419
-2.783564 50.169972 33.760405 174.060468 -33.756191 -7.101330 5.260161 21.486162 7.546366 0.523000 2.990039 0.672322 0.924102 5.055428 1.242886 3.941332 18.214760 4.908282 -2.696297 14.396890 -1.139960 -4.628784 -9.054054 -1.111024 3.880742 -1.152499 -6.352105 0.544858 -9.812252 -11.480293 -141.454748 -57.109819 149.837674 4.304122 -3.578619 36.034770 -11.263016 -0.366587 -1.678139 7.642607 -11.626246 4.554929 103.757343 -53.066034 -146.732483 5.063624 4.327004 -57.689290 3.205640 -47.719893 7.043203 -70.132710 78.922507 -58.606614 0.463388 -5.892622 -1.516240 -0.420484 1.454158 -0.182224 -14.265664 -50.888874 19.839715 -148.923556 87.944375 -156.568395 -1.884740 -7.076027 4.378322 -0.064891 -0.188733 -0.011577
-2.775952 50.166212 33.760450 174.061051 -33.798300 -7.085157 5.281276 21.581074 7.584686 0.543215 3.080950 0.719757 0.910542 5.039776 1.216527 3.949848 18.284013 4.935941 -2.671228 14.428948 -1.222343 -4.549821 -8.997250 -1.276104 3.889669 -1.140169 -6.272329 0.735475 -9.894694 -11.138190 -142.167373 -57.515894 150.119182 4.289524 -3.414257 34.529598 -11.291894 -0.302292 -1.686381 7.514952 -11.627788 4.486540 104.377408 -53.369971 -146.962131 5.555818 3.828429 -56.112494 3.218167 -47.689791 7.044934 -70.199840 78.920454 -58.677259 0.445528 -5.894449 -1.525429 -0.411818 1.453711 -0.175057 -14.226158 -50.854906 19.808450 -148.491593 87.931043 -156.139664 -1.877013 -7.079326 4.380962 -0.064699 -0.182444 -0.017730
-2.769507 50.162913 33.762991 174.057850 -33.832357 -7.059209 5.302032 21.668939 7.613881 0.550311 3.130033 0.740743 0.912109 5.062601 1.215410 3.959517 18.349938 4.961564 -2.648176 14.461786 -1.300118 -4.476466 -8.938669 -1.431769 3.891164 -1.131736 -6.187526 0.918789 -9.973468 -10.790146 -142.871395 -57.948722 150.392131 4.303530 -3.171349 33.044717 -11.326272 -0.236376 -1.691380 7.376189 -11.616154 4.406308 104.878583 -53.662599 -147.091802 6.022968 3.386255 -54.544887 3.234003 -47.670996 7.037398 -70.297137 78.909251 -58.782618 0.443686 -5.881840 -1.530375 -0.406448 1.439451 -0.173982 -14.162771 -50.831442 19.766021 -147.923946 87.924834 -155.576817 -1.877330 -7.077508 4.391271 -0.060194 -0.179816 -0.017048
